<svg xmlns="http://www.w3.org/2000/svg" width="96" height="96" viewBox="0 0 96 96" role="img" aria-label="DevOps DevOpt icon">
  <title>DevOpt</title>
  <g fill="none" stroke="currentColor" stroke-width="4" stroke-linecap="round" stroke-linejoin="round">
    <!-- infinity-ish loop -->
    <path d="M20 52c0-10 8-18 18-18 8 0 14 5 18 12 4-7 10-12 18-12 10 0 18 8 18 18s-8 18-18 18c-8 0-14-5-18-12-4 7-10 12-18 12-10 0-18-8-18-18z"/>

    <!-- tiny "daemon" smile inside the loop -->
    <path d="M40 52c2 3 5 5 8 5s6-2 8-5"/>
    <path d="M42 46h0"/>
    <path d="M54 46h0"/>

    <!-- little "deploy wand" spark -->
    <path d="M70 26l6-6"/>
    <path d="M78 28l4-2"/>
    <path d="M76 34l2 4"/>
  </g>

  <!-- eyes as dots (fill uses currentColor too) -->
  <circle cx="42" cy="46" r="2" fill="currentColor"/>
  <circle cx="54" cy="46" r="2" fill="currentColor"/>
</svg>
